<svg xmlns="http://www.w3.org/2000/svg" width="34.685" height="41.339" viewBox="0 0 34.685 41.339">
  <g id="iconfinder_SocialMedia_Discord-Outline_2959743" transform="translate(-15 -7.5)">
    <path id="Path_1" data-name="Path 1" d="M43.863,9.8A3.511,3.511,0,0,1,47.4,13.3V43.778L43.7,40.55l-2.092-1.9-2.191-2.021.913,3.143H20.822a3.511,3.511,0,0,1-3.539-3.5V13.3a3.511,3.511,0,0,1,3.539-3.5H43.863m0-2.3H20.822A5.819,5.819,0,0,0,15,13.3v22.97a5.819,5.819,0,0,0,5.826,5.8H41.945l.195.181.021.018h.021l3.7,3.228,3.8,3.341V13.3A5.819,5.819,0,0,0,43.863,7.5Z" transform="translate(0 0)" fill="rgba(236,236,236,0.26)"/>
    <path id="Path_2" data-name="Path 2" d="M49.323,49.574c.517.648,1.136,1.377,1.136,1.377a6.3,6.3,0,0,0,5.263-2.584,22.542,22.542,0,0,0-2.478-9.91,8.576,8.576,0,0,0-4.831-1.77l-.241.273a11.5,11.5,0,0,1,4.283,2.159,14.157,14.157,0,0,0-5.174-1.632,14.727,14.727,0,0,0-3.472.035,1.713,1.713,0,0,0-.294.035,13.039,13.039,0,0,0-3.893,1.062c-.651.3-1.023.492-1.023.492a11.542,11.542,0,0,1,4.523-2.226l-.173-.205a8.576,8.576,0,0,0-4.831,1.77,22.542,22.542,0,0,0-2.478,9.91,6.212,6.212,0,0,0,5.245,2.584s.637-.764,1.154-1.416a5.333,5.333,0,0,1-3.008-2s.173.12.481.29a.237.237,0,0,0,.067.05c.053.035.1.05.156.085a10.135,10.135,0,0,0,1.256.577,14.568,14.568,0,0,0,2.527.729,12.193,12.193,0,0,0,4.452,0,11.425,11.425,0,0,0,2.478-.729,9.885,9.885,0,0,0,1.978-1A5.319,5.319,0,0,1,49.323,49.574Zm-6.371-2.368a1.857,1.857,0,0,1-1.741-1.943,1.752,1.752,0,1,1,3.479,0,1.844,1.844,0,0,1-1.745,1.947Zm6.226,0a1.832,1.832,0,0,1-1.731-1.94,1.752,1.752,0,1,1,1.741,1.943Z" transform="translate(-13.335 -18.852)" fill="rgba(236,236,236,0.26)"/>
  </g>
</svg>
