<svg xmlns="http://www.w3.org/2000/svg" width="44.306" height="44.306" viewBox="0 0 44.306 44.306">
  <g id="iconfinder_01_111032" transform="translate(111.6 -368.59)">
    <g id="Group_2" data-name="Group 2" transform="translate(-110.1 370.09)">
      <g id="Group_1" data-name="Group 1" transform="translate(0 0)">
        <g id="Group_3" data-name="Group 3" transform="translate(0)">
          <path id="Path_5" data-name="Path 5" d="M31.9,69.866a3.439,3.439,0,0,0,3.439,3.439H69.767a3.439,3.439,0,0,0,3.439-3.439V35.439A3.439,3.439,0,0,0,69.767,32H35.348a3.427,3.427,0,0,0-3.439,3.439L31.9,69.866Z" transform="translate(-31.9 -32)" fill="none" stroke="rgba(236,236,236,0.26)" stroke-miterlimit="10" stroke-width="3"/>
          <path id="Path_6" data-name="Path 6" d="M226.239,142.193V128.427H222.8v-5.163h3.439c0-8.877.379-9.464,11.189-9.464v5.163c-5.694,0-5.163.322-5.163,4.3h5.163v5.163h-5.163V142.2l-6.025-.009Z" transform="translate(-204.715 -106.05)" fill="rgba(236,236,236,0.26)"/>
        </g>
      </g>
    </g>
  </g>
</svg>
