<svg xmlns="http://www.w3.org/2000/svg" width="41.139" height="41.139" viewBox="0 0 41.139 41.139">
  <g id="iconfinder_38-instagram_1161953" transform="translate(-3.4 -4.8)">
    <path id="Path_3" data-name="Path 3" d="M26.017,16.7A10.617,10.617,0,1,0,36.633,27.317,10.637,10.637,0,0,0,26.017,16.7Zm0,17.418a6.8,6.8,0,1,1,6.8-6.8A6.832,6.832,0,0,1,26.017,34.118Z" transform="translate(-2.047 -2.03)" fill="rgba(236,236,236,0.26)"/>
    <circle id="Ellipse_1" data-name="Ellipse 1" cx="2.405" cy="2.405" r="2.405" transform="translate(32.596 12.016)" fill="rgba(236,236,236,0.26)"/>
    <path id="Path_4" data-name="Path 4" d="M41.222,8.2a11.812,11.812,0,0,0-8.709-3.4H15.427C8.211,4.8,3.4,9.611,3.4,16.827v17A11.934,11.934,0,0,0,6.884,42.7a12.1,12.1,0,0,0,8.626,3.235H32.43A12.247,12.247,0,0,0,41.139,42.7a11.874,11.874,0,0,0,3.4-8.792V16.827A11.89,11.89,0,0,0,41.222,8.2ZM40.89,33.913a8.1,8.1,0,0,1-2.405,6.055,8.573,8.573,0,0,1-6.055,2.156H15.51a8.573,8.573,0,0,1-6.055-2.156A8.337,8.337,0,0,1,7.215,33.83v-17a8.269,8.269,0,0,1,2.239-6.055A8.434,8.434,0,0,1,15.51,8.615H32.6a8.269,8.269,0,0,1,6.055,2.239,8.559,8.559,0,0,1,2.239,5.972V33.913Z" fill="rgba(236,236,236,0.26)"/>
  </g>
</svg>
