<svg xmlns="http://www.w3.org/2000/svg" width="58.368" height="44.539" viewBox="0 0 58.368 44.539">
  <g id="iconfinder_youtube_317714" transform="translate(1.5 -2.5)">
    <path id="Path_7" data-name="Path 7" d="M54.814,12.964s-.54-4.073-2.2-5.866a7.638,7.638,0,0,0-5.547-2.5C39.319,4,27.7,4,27.7,4H27.67S16.048,4,8.3,4.6A7.641,7.641,0,0,0,2.754,7.1C1.1,8.891.554,12.964.554,12.964A95.138,95.138,0,0,0,0,22.521V27A95.1,95.1,0,0,0,.554,36.56s.54,4.071,2.2,5.86c2.108,2.35,4.872,2.279,6.1,2.525,4.429.453,18.826.594,18.826.594s11.634-.021,19.383-.614a7.671,7.671,0,0,0,5.547-2.5c1.658-1.79,2.2-5.86,2.2-5.86A95.149,95.149,0,0,0,55.368,27V22.523A95.149,95.149,0,0,0,54.814,12.964Z" transform="translate(0 0)" fill="none" stroke="rgba(236,236,236,0.26)" stroke-width="3"/>
    <path id="Path_8" data-name="Path 8" d="M12,10V30.77L29.308,20.385Z" transform="translate(8.77 4.385)" fill="rgba(236,236,236,0.26)"/>
  </g>
</svg>
