<svg id="Page-1" xmlns="http://www.w3.org/2000/svg" width="41.539" height="41.539" viewBox="0 0 41.539 41.539">
  <g id="Twitter">
    <path id="Oval-1" d="M20.77,41.539A20.77,20.77,0,1,0,0,20.77,20.77,20.77,0,0,0,20.77,41.539Zm0-2.492A18.277,18.277,0,1,0,2.492,20.77,18.277,18.277,0,0,0,20.77,39.047Zm-.264-21.971.04.683-.66-.084A10.57,10.57,0,0,1,13.6,14.443l-.872-.906-.224.669a4.155,4.155,0,0,0,.819,4.124c.528.585.409.669-.5.321-.317-.111-.594-.2-.621-.153a5.176,5.176,0,0,0,.475,1.867,4.351,4.351,0,0,0,1.809,1.783l.647.321-.766.014c-.74,0-.766.014-.687.307a4.061,4.061,0,0,0,2.47,2.285l.819.293-.713.446a7.194,7.194,0,0,1-3.539,1.031,3.752,3.752,0,0,0-1.083.111,9.862,9.862,0,0,0,2.549,1.226,10.732,10.732,0,0,0,8.663-1.031,11.989,11.989,0,0,0,4.4-5.406,14.923,14.923,0,0,0,.9-4.18c0-.641.04-.725.779-1.491A8.978,8.978,0,0,0,29.842,15c.132-.265.119-.265-.555-.028-1.122.418-1.281.362-.726-.265a4.088,4.088,0,0,0,.9-1.491c0-.042-.2.028-.423.153a7.178,7.178,0,0,1-1.162.474l-.713.237-.647-.46a5.3,5.3,0,0,0-1.122-.613,4.325,4.325,0,0,0-2.311.056,3.993,3.993,0,0,0-2.575,4.013Zm0,0" fill="#ececec" fill-rule="evenodd"/>
  </g>
</svg>
